<?xml version="1.0" encoding="UTF-8" standalone="no"?>
<!-- Created with Inkscape (http://www.inkscape.org/) -->

<svg
   xmlns:dc="http://purl.org/dc/elements/1.1/"
   xmlns:cc="http://creativecommons.org/ns#"
   xmlns:rdf="http://www.w3.org/1999/02/22-rdf-syntax-ns#"
   xmlns:svg="http://www.w3.org/2000/svg"
   xmlns="http://www.w3.org/2000/svg"
   xmlns:sodipodi="http://sodipodi.sourceforge.net/DTD/sodipodi-0.dtd"
   xmlns:inkscape="http://www.inkscape.org/namespaces/inkscape"
   width="48px"
   height="48px"
   id="svg2985"
   version="1.1"
   inkscape:version="0.48.4 r9939"
   sodipodi:docname="koicon.wifi.secure.0.svg"
   inkscape:export-filename="/home/houqp/Documents/code/kindle/koreader-icons/build/koicon.wifi.secure.0.medium.png"
   inkscape:export-xdpi="60"
   inkscape:export-ydpi="60"
   enable-background="new">
  <defs
     id="defs2987">
    <clipPath
       clipPathUnits="userSpaceOnUse"
       id="clipPath4890">
      <path
         style="fill:#b20000;fill-opacity:0.32420092;stroke:none"
         d="m 12.28125,14.0625 c -0.554,0 -1,0.446 -1,1 l 0,30.21875 c 0,0.554 0.446,1 1,1 l 37.375,0 c 0.554,0 1,-0.446 1,-1 l 0,-30.21875 c 0,-0.554 -0.446,-1 -1,-1 l -37.375,0 z m 16.28125,14.71875 8,0 c 0.554,0 1,0.446 1,1 l 0,6 c 0,0.554 -0.446,1 -1,1 l -8,0 c -0.554,0 -1,-0.446 -1,-1 l 0,-6 c 0,-0.554 0.446,-1 1,-1 z"
         id="path4892"
         inkscape:connector-curvature="0" />
    </clipPath>
    <clipPath
       clipPathUnits="userSpaceOnUse"
       id="clipPath4906">
      <path
         style="fill:#b20000;fill-opacity:0.32420092;stroke:none"
         d="m 20.78125,20.361607 c -0.554,0 -1,0.446 -1,1 l 0,23.125 c 0,0.554 0.446,1 1,1 l 23.28125,0 c 0.554,0 1,-0.446 1,-1 l 0,-23.125 c 0,-0.554 -0.446,-1 -1,-1 l -23.28125,0 z m 11.625,10.15625 c 0.757573,0 1.375,0.617427 1.375,1.375 0,0.430035 -0.190318,0.810999 -0.5,1.0625 l 0,1.46875 c 0,0.4986 -0.394207,0.90625 -0.875,0.90625 -0.480793,0 -0.84375,-0.40765 -0.84375,-0.90625 l 0,-1.46875 c -0.309682,-0.251501 -0.5,-0.632465 -0.5,-1.0625 0,-0.757573 0.586176,-1.375 1.34375,-1.375 z"
         id="path4908"
         inkscape:connector-curvature="0" />
    </clipPath>
    <clipPath
       clipPathUnits="userSpaceOnUse"
       id="clipPath4890-0">
      <path
         style="fill:#b20000;fill-opacity:0.32420092;stroke:none"
         d="m 12.28125,14.0625 c -0.554,0 -1,0.446 -1,1 l 0,30.21875 c 0,0.554 0.446,1 1,1 l 37.375,0 c 0.554,0 1,-0.446 1,-1 l 0,-30.21875 c 0,-0.554 -0.446,-1 -1,-1 l -37.375,0 z m 16.28125,14.71875 8,0 c 0.554,0 1,0.446 1,1 l 0,6 c 0,0.554 -0.446,1 -1,1 l -8,0 c -0.554,0 -1,-0.446 -1,-1 l 0,-6 c 0,-0.554 0.446,-1 1,-1 z"
         id="path4892-9"
         inkscape:connector-curvature="0" />
    </clipPath>
    <clipPath
       clipPathUnits="userSpaceOnUse"
       id="clipPath4906-3">
      <path
         style="fill:#b20000;fill-opacity:0.32420092;stroke:none"
         d="m 20.78125,20.361607 c -0.554,0 -1,0.446 -1,1 l 0,23.125 c 0,0.554 0.446,1 1,1 l 23.28125,0 c 0.554,0 1,-0.446 1,-1 l 0,-23.125 c 0,-0.554 -0.446,-1 -1,-1 l -23.28125,0 z m 11.625,10.15625 c 0.757573,0 1.375,0.617427 1.375,1.375 0,0.430035 -0.190318,0.810999 -0.5,1.0625 l 0,1.46875 c 0,0.4986 -0.394207,0.90625 -0.875,0.90625 -0.480793,0 -0.84375,-0.40765 -0.84375,-0.90625 l 0,-1.46875 c -0.309682,-0.251501 -0.5,-0.632465 -0.5,-1.0625 0,-0.757573 0.586176,-1.375 1.34375,-1.375 z"
         id="path4908-6"
         inkscape:connector-curvature="0" />
    </clipPath>
    <clipPath
       clipPathUnits="userSpaceOnUse"
       id="clipPath4890-02">
      <path
         style="fill:#b20000;fill-opacity:0.32420092;stroke:none"
         d="m 12.28125,14.0625 c -0.554,0 -1,0.446 -1,1 l 0,30.21875 c 0,0.554 0.446,1 1,1 l 37.375,0 c 0.554,0 1,-0.446 1,-1 l 0,-30.21875 c 0,-0.554 -0.446,-1 -1,-1 l -37.375,0 z m 16.28125,14.71875 8,0 c 0.554,0 1,0.446 1,1 l 0,6 c 0,0.554 -0.446,1 -1,1 l -8,0 c -0.554,0 -1,-0.446 -1,-1 l 0,-6 c 0,-0.554 0.446,-1 1,-1 z"
         id="path4892-3"
         inkscape:connector-curvature="0" />
    </clipPath>
    <clipPath
       clipPathUnits="userSpaceOnUse"
       id="clipPath4890-9">
      <path
         style="fill:#b20000;fill-opacity:0.32420092;stroke:none"
         d="m 12.28125,14.0625 c -0.554,0 -1,0.446 -1,1 l 0,30.21875 c 0,0.554 0.446,1 1,1 l 37.375,0 c 0.554,0 1,-0.446 1,-1 l 0,-30.21875 c 0,-0.554 -0.446,-1 -1,-1 l -37.375,0 z m 16.28125,14.71875 8,0 c 0.554,0 1,0.446 1,1 l 0,6 c 0,0.554 -0.446,1 -1,1 l -8,0 c -0.554,0 -1,-0.446 -1,-1 l 0,-6 c 0,-0.554 0.446,-1 1,-1 z"
         id="path4892-4"
         inkscape:connector-curvature="0" />
    </clipPath>
    <clipPath
       clipPathUnits="userSpaceOnUse"
       id="clipPath4906-7">
      <path
         style="fill:#b20000;fill-opacity:0.32420092;stroke:none"
         d="m 20.78125,20.361607 c -0.554,0 -1,0.446 -1,1 l 0,23.125 c 0,0.554 0.446,1 1,1 l 23.28125,0 c 0.554,0 1,-0.446 1,-1 l 0,-23.125 c 0,-0.554 -0.446,-1 -1,-1 l -23.28125,0 z m 11.625,10.15625 c 0.757573,0 1.375,0.617427 1.375,1.375 0,0.430035 -0.190318,0.810999 -0.5,1.0625 l 0,1.46875 c 0,0.4986 -0.394207,0.90625 -0.875,0.90625 -0.480793,0 -0.84375,-0.40765 -0.84375,-0.90625 l 0,-1.46875 c -0.309682,-0.251501 -0.5,-0.632465 -0.5,-1.0625 0,-0.757573 0.586176,-1.375 1.34375,-1.375 z"
         id="path4908-8"
         inkscape:connector-curvature="0" />
    </clipPath>
    <clipPath
       clipPathUnits="userSpaceOnUse"
       id="clipPath5440">
      <path
         inkscape:connector-curvature="0"
         style="fill:#8000d9;fill-opacity:0.5;stroke:none;display:inline"
         d="m -26.353795,-12.150634 c -0.523258,0 -0.94082,0.417562 -0.94082,0.940821 l 0,50.306227 c 0,0.523259 0.417562,0.959268 0.94082,0.959268 l 66.171045,0 c 0.523258,0 0.94082,-0.436009 0.94082,-0.959268 l 0,-50.306227 c 0,-0.523259 -0.417562,-0.940821 -0.94082,-0.940821 l -66.171045,0 z m 52.888872,36.913371 2.785567,0 c 0.98111,0 1.770956,0.789846 1.770956,1.770956 l 0,0.940821 c 0.413955,0.0213 0.756346,0.374835 0.756346,0.79324 l 0,4.667208 c 0,0.431689 -0.361552,0.774794 -0.793241,0.774794 l -6.235242,0 c -0.431688,0 -0.774793,-0.343105 -0.774793,-0.774794 l 0,-4.667208 c 0,-0.41392 0.312934,-0.765177 0.719451,-0.79324 l 0,-0.940821 c 0,-0.98111 0.789847,-1.770956 1.770956,-1.770956 z"
         id="path5442" />
    </clipPath>
    <clipPath
       clipPathUnits="userSpaceOnUse"
       id="clipPath5444">
      <path
         inkscape:connector-curvature="0"
         style="fill:#8000d9;fill-opacity:0.5;stroke:none;display:inline"
         d="m 45.253275,52.93304 c 0.221032,0 0.397416,-0.176384 0.397416,-0.397416 l 0,-21.250044 c 0,-0.221031 -0.176384,-0.405208 -0.397416,-0.405208 l -27.951561,0 c -0.221031,0 -0.397415,0.184177 -0.397415,0.405208 l 0,21.250044 c 0,0.221032 0.176384,0.397416 0.397415,0.397416 l 27.951561,0 z m -22.340988,-15.592717 -1.176662,0 c -0.414434,0 -0.748076,-0.333642 -0.748076,-0.748076 l 0,-0.397416 c -0.174861,-0.009 -0.319491,-0.158335 -0.319491,-0.335076 l 0,-1.971492 c 0,-0.182352 0.152725,-0.327284 0.335076,-0.327284 l 2.633852,0 c 0.182351,0 0.327283,0.144932 0.327283,0.327284 l 0,1.971492 c 0,0.174846 -0.132187,0.323222 -0.303906,0.335076 l 0,0.397416 c 0,0.414434 -0.333642,0.748076 -0.748076,0.748076 z"
         id="path5446" />
    </clipPath>
    <filter
       inkscape:collect="always"
       id="filter5460">
      <feBlend
         inkscape:collect="always"
         mode="lighten"
         in2="BackgroundImage"
         id="feBlend5462" />
    </filter>
  </defs>
  <sodipodi:namedview
     id="base"
     pagecolor="#ffffff"
     bordercolor="#666666"
     borderopacity="1.0"
     inkscape:pageopacity="0"
     inkscape:pageshadow="2"
     inkscape:zoom="7"
     inkscape:cx="-2.7885371"
     inkscape:cy="24.157879"
     inkscape:current-layer="layer2"
     showgrid="true"
     inkscape:grid-bbox="true"
     inkscape:document-units="px"
     inkscape:window-width="1920"
     inkscape:window-height="1056"
     inkscape:window-x="1920"
     inkscape:window-y="24"
     inkscape:window-maximized="1"
     showguides="true"
     inkscape:guide-bbox="true">
    <sodipodi:guide
       orientation="0,1"
       position="24,24"
       id="guide3032" />
    <sodipodi:guide
       orientation="1,0"
       position="24,53.857143"
       id="guide3034" />
    <sodipodi:guide
       orientation="-0.73935776,0.67331278"
       position="24,10.750762"
       id="guide3824" />
    <sodipodi:guide
       orientation="-0.73954801,-0.67310381"
       position="24,10.750762"
       id="guide3852" />
  </sodipodi:namedview>
  <metadata
     id="metadata2990">
    <rdf:RDF>
      <cc:Work
         rdf:about="">
        <dc:format>image/svg+xml</dc:format>
        <dc:type
           rdf:resource="http://purl.org/dc/dcmitype/StillImage" />
        <dc:title></dc:title>
      </cc:Work>
    </rdf:RDF>
  </metadata>
  <g
     inkscape:groupmode="layer"
     id="layer2"
     inkscape:label="singals"
     style="display:inline;filter:url(#filter5460)">
    <path
       sodipodi:type="arc"
       style="fill:#000000;fill-opacity:0;fill-rule:evenodd;stroke:#000000;stroke-width:1.39999998000000003;stroke-linecap:butt;stroke-linejoin:miter;stroke-opacity:1;display:inline;opacity:0.2"
       id="path3030-3-7"
       sodipodi:cx="24"
       sodipodi:cy="33.714287"
       sodipodi:rx="2.8"
       sodipodi:ry="2.8"
       d="m 25.917848,35.75435 a 2.8,2.8 0 0 1 -3.860892,-0.02398"
       transform="matrix(-4.0102858,0,0,-4.0102858,120.1789,172.21725)"
       sodipodi:start="0.81626716"
       sodipodi:end="2.3377491"
       sodipodi:open="true"
       clip-path="url(#clipPath5444)" />
    <path
       sodipodi:type="arc"
       style="fill:#000000;fill-opacity:0;fill-rule:evenodd;stroke:#000000;stroke-width:1.39999998000000003;stroke-linecap:butt;stroke-linejoin:miter;stroke-opacity:1;display:inline;opacity:0.2"
       id="path3030-3-7-3"
       sodipodi:cx="24"
       sodipodi:cy="33.714287"
       sodipodi:rx="5"
       sodipodi:ry="5"
       d="m 27.470916,37.313278 a 5,5 0 0 1 -6.951235,-0.0091"
       transform="matrix(-4.0102858,0,0,-4.0102858,120.24535,171.60498)"
       sodipodi:start="0.80351168"
       sodipodi:end="2.3406969"
       sodipodi:open="true" />
    <path
       sodipodi:type="arc"
       style="fill:#000000;fill-opacity:0;fill-rule:evenodd;stroke:#000000;stroke-width:1.39999998000000003;stroke-linecap:butt;stroke-linejoin:miter;stroke-opacity:1;display:inline;opacity:0.2"
       id="path3030-3-7-3-5"
       sodipodi:cx="24"
       sodipodi:cy="33.714287"
       sodipodi:rx="7"
       sodipodi:ry="7"
       d="m 28.892473,38.720654 a 7,7 0 0 1 -9.804982,-0.01966"
       transform="matrix(-4.0102858,0,0,-4.0102858,120.24444,170.97191)"
       sodipodi:start="0.79690348"
       sodipodi:end="2.3486992"
       sodipodi:open="true" />
    <path
       sodipodi:type="arc"
       style="fill:#000000;fill-opacity:1;fill-rule:evenodd;stroke:#000000;stroke-width:1px;stroke-linecap:butt;stroke-linejoin:miter;stroke-opacity:1;display:inline;opacity:0.2"
       id="path3030"
       sodipodi:cx="24"
       sodipodi:cy="33.714287"
       sodipodi:rx="2.8"
       sodipodi:ry="2.8"
       d="m 26.8,33.714287 a 2.8,2.8 0 1 1 -5.6,0 2.8,2.8 0 1 1 5.6,0 z"
       transform="matrix(1.694,0,0,1.694,-16.65634,-19.476194)"
       clip-path="url(#clipPath5440)" />
    <rect
       style="fill:#000000;fill-opacity:1;stroke:none;display:inline"
       id="rect4669-4"
       width="10"
       height="8"
       x="27.421875"
       y="28.924107"
       rx="1"
       ry="1"
       clip-path="url(#clipPath4906-7)"
       transform="translate(-1.1836507,-0.94378456)" />
    <path
       style="fill:#cc0000;fill-opacity:0;stroke:#000000;stroke-width:1.39999998;stroke-miterlimit:4;stroke-opacity:1;stroke-dasharray:none;display:inline"
       d="m 30.714287,25.642858 3.714286,0 c 0.554,0 1,0.446 1,1 l 0,4.571428 c 0,0.554 -0.446,1 -1,1 l -3.714286,0 c -0.554,0 -1,-0.446 -1,-1 l 0,-4.571428 c 0,-0.554 0.446,-1 1,-1 z"
       id="rect4803-5"
       inkscape:connector-curvature="0"
       clip-path="url(#clipPath4890-9)"
       transform="translate(-1.3332057,-1.0866415)" />
  </g>
  <g
     inkscape:groupmode="layer"
     id="layer5"
     inkscape:label="lock"
     style="display:none">
    <path
       style="fill:#8000d9;fill-opacity:0.5;stroke:none"
       d="m -49.53125,-29.78125 c -0.8864,0 -1.59375,0.70735 -1.59375,1.59375 l 0,85.21875 c 0,0.8864 0.70735,1.625 1.59375,1.625 l 112.09375,0 c 0.8864,0 1.59375,-0.7386 1.59375,-1.625 l 0,-85.21875 c 0,-0.8864 -0.70735,-1.59375 -1.59375,-1.59375 l -112.09375,0 z M 40.0625,32.75 l 4.71875,0 c 1.662,0 3,1.338 3,3 l 0,1.59375 c 0.70124,0.03608 1.28125,0.634971 1.28125,1.34375 l 0,7.90625 c 0,0.73128 -0.61247,1.3125 -1.34375,1.3125 l -10.5625,0 c -0.73128,0 -1.3125,-0.58122 -1.3125,-1.3125 l 0,-7.90625 c 0,-0.701182 0.530113,-1.29621 1.21875,-1.34375 l 0,-1.59375 c 0,-1.662 1.338,-3 3,-3 z"
       id="rect5251"
       inkscape:connector-curvature="0" />
    <rect
       style="fill:#000000;fill-opacity:1;stroke:none"
       id="rect4669"
       width="10"
       height="8"
       x="27.421875"
       y="28.924107"
       rx="1"
       ry="1"
       clip-path="url(#clipPath4906)"
       transform="translate(10.004535,9.7142857)" />
    <rect
       style="fill:#000000;fill-opacity:0.49315072;stroke:none"
       id="rect5415"
       width="10.707618"
       height="11.414723"
       x="37.072601"
       y="32.7467"
       rx="3"
       ry="3" />
    <path
       style="fill:#cc0000;fill-opacity:0;stroke:#000000;stroke-width:1.39999998;stroke-miterlimit:4;stroke-opacity:1;stroke-dasharray:none"
       d="m 30.714287,25.642858 3.714286,0 c 0.554,0 1,0.446 1,1 l 0,4.571428 c 0,0.554 -0.446,1 -1,1 l -3.714286,0 c -0.554,0 -1,-0.446 -1,-1 l 0,-4.571428 c 0,-0.554 0.446,-1 1,-1 z"
       id="rect4803"
       inkscape:connector-curvature="0"
       clip-path="url(#clipPath4890)"
       transform="translate(9.8549802,9.5714286)" />
  </g>
</svg>
